<svg width="42" height="60" viewBox="0 0 42 60" fill="none" xmlns="http://www.w3.org/2000/svg">
<path d="M12.2499 56.25C12.2499 57.8541 13.5624 59.1666 15.1666 59.1666H26.8333C28.4374 59.1666 29.7499 57.8541 29.7499 56.25V53.3333H12.2499V56.25ZM20.9999 0.833313C9.74158 0.833313 0.583252 9.99165 0.583252 21.25C0.583252 28.1916 4.05409 34.2875 9.33325 37.9916V44.5833C9.33325 46.1875 10.6458 47.5 12.2499 47.5H29.7499C31.3541 47.5 32.6666 46.1875 32.6666 44.5833V37.9916C37.9458 34.2875 41.4166 28.1916 41.4166 21.25C41.4166 9.99165 32.2582 0.833313 20.9999 0.833313ZM29.3124 33.2083L26.8333 34.9583V41.6666H15.1666V34.9583L12.6874 33.2083C8.74992 30.4666 6.41658 26.0041 6.41658 21.25C6.41658 13.2 12.9499 6.66665 20.9999 6.66665C29.0499 6.66665 35.5833 13.2 35.5833 21.25C35.5833 26.0041 33.2499 30.4666 29.3124 33.2083Z" fill="#618264"/>
</svg>
